<svg width="140" height="39" viewBox="0 0 140 39" fill="none" xmlns="http://www.w3.org/2000/svg">
<path d="M17.5848 0.0744973C17.2075 0.171021 17.111 0.24122 17.111 0.434267C17.111 0.934434 18.8923 1.81192 23.7623 3.73362C26.1052 4.66375 29.1062 5.92733 30.4488 6.55912C32.7039 7.62088 34.9678 9.01608 35.9857 9.97254C36.3191 10.2884 36.5912 10.5166 36.5912 10.4727C36.5912 10.3323 35.6786 8.81426 35.31 8.33164C34.8976 7.79638 34.0728 6.96277 33.8008 6.81359C33.7042 6.75217 33.2567 6.45382 32.8004 6.1467C31.8176 5.47104 29.3519 4.26011 27.3776 3.47914C26.579 3.16325 24.4116 2.33841 22.5602 1.65397C20.6999 0.960759 19.0765 0.302644 18.9449 0.197345C18.6992 -0.0132513 18.1639 -0.0571256 17.5848 0.0744973Z" fill="#1C2135"/>
<path d="M20.0418 0.0569494C20.8139 0.258771 27.0441 2.38229 28.0795 2.80348C29.659 3.44405 31.0542 4.09339 31.5807 4.41806C32.2037 4.81293 31.9054 4.52336 30.9577 3.81259C29.7643 2.90878 26.9739 1.56623 25.8332 1.34685C25.7279 1.3293 25.3857 1.23278 25.0873 1.14503C24.1221 0.846687 22.1126 0.364069 21.0684 0.179797C20.1558 0.0130748 19.6206 -0.048349 20.0418 0.0569494Z" fill="#1C2135"/>
<path d="M15.0401 0.390379C12.6621 1.00462 12.5129 1.89088 14.5312 3.43526C15.0489 3.83013 16.1633 4.55844 16.2598 4.55844C16.2774 4.55844 16.8477 4.84801 17.5146 5.199C18.8133 5.89222 20.6648 6.75216 22.2443 7.39272C22.7795 7.61209 23.6482 7.99819 24.1747 8.24388C24.71 8.49835 25.3418 8.77037 25.5787 8.85812C26.8423 9.30564 31.8264 11.7889 33.5638 12.8331C35.9769 14.281 37.6792 15.7903 38.3461 17.0802C38.4514 17.2908 38.5567 17.4575 38.5831 17.4575C38.7322 17.4575 38.2496 14.825 37.9776 14.1669C37.3721 12.7542 35.8102 11.1835 33.7306 9.91111C32.3617 9.06872 28.0883 6.96275 25.5348 5.87467C22.5338 4.59354 19.1555 3.09304 18.0937 2.56655C16.2861 1.68028 15.5403 0.864222 16.0317 0.328955C16.1633 0.179783 16.1633 0.171008 16.0053 0.171008C15.9176 0.179783 15.4788 0.276306 15.0401 0.390379Z" fill="#1C2135"/>
<path d="M11.2582 1.70663C10.1086 2.2419 9.17851 2.97899 8.84507 3.6371C8.6257 4.0583 8.61692 4.73396 8.80997 5.20781C9.47686 6.80483 12.3375 8.79672 17.0671 10.9729C18.1289 11.4555 19.3135 11.9908 19.6996 12.1487C20.8842 12.6313 22.0249 13.1491 23.0165 13.6492C23.5342 13.9125 24.2537 14.2459 24.6135 14.3863C26.4299 15.1059 30.2206 17.1328 32.9759 18.8615C33.8359 19.3968 35.2837 20.555 36.012 21.2746C37.0036 22.2749 37.8197 23.6175 37.8197 24.258C37.8197 24.7319 37.9776 24.5125 38.118 23.8368C38.2058 23.442 38.3111 22.9681 38.3549 22.7926C38.469 22.3363 38.4602 21.1079 38.3374 20.5287C38.0303 19.0809 36.9071 17.5628 35.1433 16.2203C34.5115 15.7376 32.6776 14.4741 32.6074 14.4741C32.5811 14.4741 32.2564 14.2898 31.8791 14.0616C31.1771 13.6404 24.9469 10.4815 24.3941 10.2621C23.6483 9.97256 16.9443 6.78728 15.7948 6.18182C12.7236 4.55847 11.4863 3.40018 11.6092 2.30333C11.6267 2.08395 11.732 1.79438 11.8373 1.65399C12.0742 1.33809 12.0391 1.33809 11.2582 1.70663Z" fill="#1C2135"/>
<path d="M6.38813 4.93577C5.44044 5.77816 4.97538 6.30465 4.67703 6.91889C4.46643 7.34886 4.43134 7.51558 4.43134 8.20002C4.43134 8.94589 4.44889 9.02486 4.78233 9.64788C5.22985 10.5078 6.6777 11.9557 8.09923 12.9823C9.26629 13.8159 9.19609 13.7721 10.7054 14.6232C12.2673 15.5095 18.8133 18.8615 18.9801 18.8615C19.0415 18.8615 20.1208 19.3529 22.5953 20.5199C24.4205 21.3711 27.3952 22.8716 28.1673 23.3279C29.3695 24.0299 29.4748 24.0913 30.6419 24.8196C32.7654 26.1358 34.2132 27.4609 34.766 28.5753C35.003 29.0579 35.0468 29.2509 35.0468 29.8037C35.0556 30.4355 35.0556 30.4443 35.2048 30.26C35.5909 29.795 36.1876 28.7244 36.3982 28.1453C36.5649 27.6539 36.6263 27.3292 36.6263 26.7589C36.6263 26.0656 36.6 25.9603 36.3016 25.3549C35.9068 24.5476 35.0732 23.4858 34.3624 22.8628C32.7039 21.4062 29.6415 19.5284 25.5086 17.4224C21.1913 15.2199 16.4354 12.7805 15.2156 12.1312C14.6804 11.8416 14.11 11.552 13.9433 11.4906C13.3027 11.2361 11.5829 10.2358 10.328 9.41096C7.66926 7.63843 6.5022 5.92733 7.05502 4.60233C7.12522 4.43561 7.17787 4.29521 7.16032 4.29521C7.14277 4.29521 6.80055 4.58478 6.38813 4.93577Z" fill="#1C2135"/>
<path d="M2.4833 9.80583C1.13197 12.0522 0.991574 13.3158 1.90416 15.0006C2.4482 16.0009 3.19406 16.8433 4.64192 18.063C5.9055 19.1335 7.17785 20.011 8.86263 20.9762C8.98547 21.0464 9.09955 21.1166 9.12587 21.143C9.19607 21.2132 9.51196 21.4062 9.65236 21.4589C9.93316 21.5729 11.1967 22.231 11.4073 22.3714C11.5302 22.4504 11.8636 22.6171 12.1532 22.74C13.0658 23.1348 15.3297 24.1615 17.1549 25.0039C18.1201 25.4426 19.1117 25.8902 19.3486 25.9867C19.8312 26.1797 20.0681 26.2763 20.814 26.6185C21.086 26.7413 21.3405 26.8466 21.3756 26.8466C21.5248 26.8466 26.114 29.1807 26.9476 29.6721C29.7731 31.3744 30.9402 32.6117 30.9226 33.9279C30.9226 34.2877 30.87 34.5422 30.7647 34.7089C30.6067 34.9458 30.6067 34.937 31.0192 34.6475C31.6246 34.2175 32.5197 33.2347 32.7741 32.717C33.8183 30.6725 32.0195 28.2681 27.3074 25.4075C25.9385 24.5827 24.2186 23.6964 16.76 20.0022C14.5136 18.8966 12.2234 17.7471 11.6706 17.4487C9.71379 16.4045 7.72189 15.1585 6.58116 14.2635C6.26527 14.009 5.9055 13.7457 5.77387 13.658C5.379 13.4123 4.39622 12.4471 3.9838 11.9118C3.41344 11.1835 3.07999 10.4113 3.00102 9.66543L2.93959 9.04242L2.4833 9.80583Z" fill="#1C2135"/>
<path d="M87.3976 20.8797V29.2158H89.3281H91.2586V27.5574V25.8989L91.8465 25.4075C92.1712 25.1355 92.4607 24.9161 92.4958 24.9161C92.5309 24.9161 93.1013 25.8814 93.7682 27.066L94.9791 29.2158H97.1553C99.2964 29.2158 99.3402 29.2158 99.2437 29.0403C99.1911 28.9438 98.2785 27.3994 97.2167 25.6006C96.155 23.8017 95.2775 22.3012 95.2687 22.2749C95.2599 22.2398 96.0848 21.0991 97.0939 19.7302C98.1118 18.3701 98.9541 17.2206 98.9629 17.1767C98.9805 17.1416 98.0503 17.1065 96.892 17.1065H94.7773L93.3997 19.0107C92.6362 20.0636 91.8202 21.2482 91.5745 21.6431C91.3376 22.0468 91.127 22.3539 91.1006 22.3363C91.0831 22.3188 91.1094 21.7221 91.1621 21.0289C91.2147 20.3269 91.2586 18.1244 91.2586 16.15V12.5436H89.3281H87.3976V20.8797Z" fill="#1C2135"/>
<path d="M134.212 13.4562C132.228 13.8423 130.631 15.0181 129.754 16.738C128.999 18.2121 128.727 19.4757 128.727 21.4852C128.727 24.3633 129.359 26.2587 130.789 27.6802C132.079 28.9701 133.51 29.444 135.835 29.365C137.16 29.3123 137.95 29.1632 138.959 28.7595L139.476 28.5577L139.503 27.5047C139.52 26.9256 139.503 26.1358 139.476 25.741L139.415 25.0302L138.555 25.3636C136.335 26.2236 134.668 26.1446 133.738 25.1355C133.044 24.3809 132.772 23.5472 132.702 21.8888C132.623 20.1426 132.887 18.8878 133.518 17.9313C134.369 16.6502 135.817 16.4484 137.958 17.3171C138.906 17.7032 138.915 17.7032 138.985 17.5189C139.626 15.7903 140.056 14.4477 139.994 14.3863C139.845 14.2459 138.581 13.7721 137.844 13.5878C136.888 13.3596 135.071 13.2894 134.212 13.4562Z" fill="#1C2135"/>
<path d="M48.2881 13.658L43.2601 13.6843V15.3954V17.1065H45.015H46.77V23.205V29.3036H48.7005H50.631V23.205V17.1065H52.3245C53.2634 17.1065 54.0444 17.0889 54.0619 17.0714C54.0795 17.0538 54.0883 16.2641 54.0707 15.3164L54.0444 13.5966L53.6758 13.6141C53.474 13.6317 51.0434 13.6492 48.2881 13.658Z" fill="#1C2135"/>
<path d="M106.176 21.4062V29.2158H110.87H115.565V27.5047V25.7936H112.801H110.037V19.6951V13.5966H108.106H106.176V21.4062Z" fill="#1C2135"/>
<path d="M117.934 21.4062V29.2158H122.629H127.323V27.5047V25.7936H124.559H121.795V19.6951V13.5966H119.865H117.934V21.4062Z" fill="#1C2135"/>
<path d="M0.315895 15.5709C0.193047 16.229 0 18.0542 0 18.5982C0 20.9236 1.8866 23.1261 6.05466 25.662C6.94092 26.206 9.23993 27.3994 10.3982 27.9171C11.4073 28.3734 16.251 30.3653 16.4265 30.4004C16.6898 30.4531 19.0239 31.4797 20.4893 32.1905C23.464 33.6296 25.5349 34.9809 26.0701 35.8496C26.2895 36.2094 26.3158 36.8587 26.114 37.1571C25.9736 37.3677 25.9736 37.3764 26.2105 37.2799C26.7195 37.0869 27.4917 36.6306 27.8777 36.2884C28.6236 35.639 28.7991 34.8142 28.3779 33.9718C27.7637 32.7345 25.3857 31.0059 22.2882 29.5493C21.5862 29.2158 20.7613 28.8122 20.4454 28.6542C20.1295 28.4875 19.2433 28.0751 18.4711 27.7241C17.6989 27.3731 16.9267 27.0221 16.76 26.9344C16.5933 26.8466 15.9001 26.5307 15.2244 26.2324C13.3641 25.4075 10.2403 23.8895 9.82785 23.5999C9.705 23.5209 9.37156 23.3191 9.08198 23.1699C8.50284 22.854 8.28347 22.7224 6.97602 21.8888C6.4934 21.5817 5.87916 21.2044 5.61591 21.0464C4.36988 20.3181 2.30779 18.5368 1.57948 17.5453C1.07931 16.8696 0.64934 16.036 0.570366 15.5885C0.491392 15.176 0.386094 15.176 0.315895 15.5709Z" fill="#131B32"/>
<path d="M60.9765 17.0451C60.1342 17.282 59.1426 18.063 58.7477 18.8C58.6512 18.9755 58.5284 19.1247 58.4757 19.1247C58.4231 19.1247 58.2476 18.686 58.0896 18.1595L57.7913 17.1942H56.361H54.9307V23.2489V29.3036H56.8611H58.7916V25.9691C58.7916 22.8277 58.8004 22.6171 58.9671 22.1608C59.1777 21.6168 59.5638 21.2219 60.0815 21.0464C60.2921 20.9674 60.7923 20.9236 61.4504 20.9236C62.1085 20.9323 62.477 20.8972 62.477 20.8358C62.4858 20.7919 62.556 19.9408 62.6438 18.9492C62.7315 17.9577 62.7754 17.124 62.7491 17.0889C62.635 16.9661 61.3802 16.931 60.9765 17.0451Z" fill="#1C2135"/>
<path d="M68.0754 17.0188C66.5398 17.1943 64.5128 17.8611 64.6269 18.1507C65.1709 19.581 65.6974 20.7832 65.7676 20.7569C67.2067 20.1338 67.9876 19.9145 68.7598 19.9145C69.6373 19.9145 70.1112 20.3708 70.1112 21.2131V21.5466L68.6019 21.6519C67.7683 21.7045 66.8294 21.8186 66.5135 21.8976C65.2236 22.2223 64.232 22.9242 63.8371 23.8017C63.2404 25.1092 63.3984 27.066 64.1969 28.2155C64.7848 29.0842 65.6535 29.4791 66.9522 29.4791C68.3299 29.4791 69.1459 29.1544 70.0059 28.2681C70.3042 27.961 70.585 27.7241 70.6113 27.7592C70.6376 27.7855 70.8131 28.1365 70.9974 28.5314L71.3221 29.2597L72.6471 29.286L73.9721 29.3123V24.9776C73.9721 20.9148 73.9633 20.5989 73.7966 19.9496C73.4193 18.4754 72.5769 17.6067 71.0764 17.1592C70.4885 16.9837 68.9967 16.9135 68.0754 17.0188ZM70.1989 24.3984C70.1989 24.688 70.155 25.1092 70.0936 25.3286C69.8304 26.3815 68.4352 26.9344 67.6805 26.2762C67.4524 26.092 67.4348 26.0218 67.4348 25.4602C67.4348 24.9688 67.4699 24.7933 67.6191 24.5915C67.9701 24.1176 68.6194 23.8983 69.7426 23.8719L70.1989 23.8632V24.3984Z" fill="#1C2135"/>
<path d="M80.5971 17.0626C78.4385 17.4575 77.0433 18.7386 76.4291 20.8797C76.1307 21.8888 76.0868 24.0386 76.3325 25.2233C76.6484 26.7764 77.4206 27.9961 78.5087 28.6893C80.1233 29.716 83.1769 29.716 84.8003 28.6893L85.2039 28.4261V26.794C85.2039 25.8989 85.1776 25.1794 85.1425 25.1969C83.5981 25.9691 83.0365 26.1446 82.1064 26.1446C80.6059 26.1446 79.9302 25.0829 80.0531 22.9155C80.1057 21.8362 80.3163 21.2131 80.7726 20.7393C81.4132 20.0724 82.3082 20.0285 83.7473 20.6077C84.1334 20.7568 84.4668 20.8534 84.5019 20.8183C84.6336 20.6691 85.5637 17.9664 85.5286 17.8524C85.4584 17.6769 84.1597 17.2118 83.3173 17.0626C82.4047 16.9047 81.4395 16.9047 80.5971 17.0626Z" fill="#1C2135"/>
<path d="M0.31588 22.7663C0.535251 24.1703 1.12317 25.9691 1.57946 26.6448C2.00943 27.2941 3.26423 28.5138 4.12417 29.1193C5.91424 30.3829 8.39753 31.664 12.1532 33.2522C13.952 34.0157 16.2247 34.9282 16.4178 34.9633C16.6635 35.016 19.2345 36.069 20.1558 36.4989C21.6125 37.1834 22.2092 37.7011 22.0863 38.1837C22.0424 38.3417 22.0688 38.3504 22.3496 38.2978C22.8761 38.2013 23.5868 37.9029 23.8676 37.666C24.359 37.2624 24.1923 36.6218 23.4376 35.9637C22.0688 34.7615 19.1204 33.2698 13.601 30.9708C12.4164 30.4794 11.3108 30.0055 11.1441 29.909C10.9773 29.8213 10.5386 29.6282 10.1788 29.4791C9.46806 29.1807 6.82683 27.8382 5.83527 27.259C5.13328 26.8554 3.43096 25.7059 2.72897 25.1618C1.93923 24.5651 0.93012 23.4771 0.456277 22.7312L0.254456 22.4153L0.31588 22.7663Z" fill="#1C2135"/>
<path d="M3.0098 29.5844C3.14142 29.7599 3.24672 29.9354 3.24672 29.9617C3.24672 30.0845 4.1593 31.3306 4.58927 31.7956C6.05467 33.3839 8.95915 34.8668 14.1539 36.6832C14.9699 36.9728 15.6807 37.2009 15.7509 37.2009C15.8211 37.2009 15.979 37.2448 16.1194 37.2975C16.2511 37.3589 16.4266 37.4115 16.4968 37.4203C16.7951 37.4554 19.4012 38.368 19.5065 38.4733C19.5767 38.5347 19.7171 38.5698 19.84 38.5523C20.6034 38.447 20.7087 38.4119 20.7087 38.289C20.7087 37.938 18.7256 36.9816 15.005 35.5249C10.7141 33.8577 8.76611 33.0153 7.01991 32.094C5.44043 31.2604 4.4752 30.6286 3.07122 29.5054L2.7641 29.2597L3.0098 29.5844Z" fill="#1C2135"/>
</svg>
