
<svg width="160" height="39" viewBox="0 0 160 39" fill="none" xmlns="http://www.w3.org/2000/svg">
<g clip-path="url(#clip0_276_1129)">
<path d="M17.5846 0.0745073C17.2073 0.171031 17.1108 0.24123 17.1108 0.434277C17.1108 0.934444 18.8921 1.81193 23.7621 3.73363C26.105 4.66376 29.106 5.92734 30.4486 6.55913C32.7037 7.62089 34.9676 9.01609 35.9855 9.97255C36.3189 10.2884 36.591 10.5166 36.591 10.4727C36.591 10.3323 35.6784 8.81427 35.3098 8.33165C34.8974 7.79639 34.0726 6.96278 33.8006 6.8136C33.704 6.75218 33.2565 6.45383 32.8002 6.14671C31.8174 5.47105 29.3517 4.26012 27.3774 3.47915C26.5788 3.16326 24.4114 2.33842 22.56 1.65398C20.6997 0.960769 19.0763 0.302654 18.9447 0.197355C18.699 -0.0132413 18.1637 -0.0571156 17.5846 0.0745073Z" fill="#1C2135"/>
<path d="M20.042 0.056887C20.8141 0.258709 27.0443 2.38223 28.0797 2.80342C29.6592 3.44399 31.0544 4.09333 31.5809 4.418C32.2039 4.81287 31.9056 4.5233 30.9579 3.81253C29.7645 2.90872 26.9741 1.56617 25.8334 1.34679C25.7281 1.32924 25.3859 1.23272 25.0875 1.14497C24.1223 0.846625 22.1128 0.364007 21.0686 0.179735C20.156 0.0130124 19.6208 -0.0484114 20.042 0.056887Z" fill="#1C2135"/>
<path d="M15.0402 0.390269C12.6622 1.00451 12.513 1.89077 14.5313 3.43515C15.049 3.83002 16.1634 4.55833 16.2599 4.55833C16.2775 4.55833 16.8478 4.8479 17.5147 5.19889C18.8134 5.89211 20.6649 6.75205 22.2444 7.39261C22.7796 7.61198 23.6483 7.99808 24.1748 8.24377C24.7101 8.49824 25.3419 8.77026 25.5788 8.85801C26.8424 9.30553 31.8265 11.7888 33.5639 12.833C35.977 14.2809 37.6793 15.7902 38.3462 17.0801C38.4515 17.2907 38.5568 17.4574 38.5832 17.4574C38.7323 17.4574 38.2497 14.8249 37.9777 14.1668C37.3722 12.7541 35.8103 11.1834 33.7307 9.911C32.3618 9.06861 28.0884 6.96264 25.5349 5.87456C22.5339 4.59343 19.1556 3.09293 18.0938 2.56644C16.2862 1.68017 15.5404 0.864112 16.0318 0.328845C16.1634 0.179673 16.1634 0.170898 16.0054 0.170898C15.9177 0.179673 15.4789 0.276196 15.0402 0.390269Z" fill="#1C2135"/>
<path d="M11.2581 1.7067C10.1085 2.24197 9.17845 2.97906 8.84501 3.63717C8.62564 4.05837 8.61686 4.73403 8.80991 5.20788C9.4768 6.8049 12.3374 8.79679 17.067 10.973C18.1288 11.4556 19.3134 11.9909 19.6995 12.1488C20.8841 12.6314 22.0248 13.1492 23.0164 13.6493C23.5341 13.9126 24.2536 14.246 24.6134 14.3864C26.4298 15.106 30.2205 17.1329 32.9758 18.8616C33.8358 19.3969 35.2836 20.5551 36.0119 21.2747C37.0035 22.275 37.8196 23.6176 37.8196 24.2581C37.8196 24.732 37.9775 24.5126 38.1179 23.8369C38.2057 23.4421 38.311 22.9682 38.3548 22.7927C38.4689 22.3364 38.4601 21.108 38.3373 20.5288C38.0302 19.081 36.907 17.5629 35.1432 16.2204C34.5114 15.7377 32.6775 14.4742 32.6073 14.4742C32.581 14.4742 32.2563 14.2899 31.879 14.0617C31.177 13.6405 24.9468 10.4816 24.394 10.2622C23.6482 9.97263 16.9442 6.78735 15.7947 6.18189C12.7235 4.55854 11.4862 3.40025 11.6091 2.3034C11.6266 2.08402 11.7319 1.79445 11.8372 1.65406C12.0741 1.33816 12.039 1.33816 11.2581 1.7067Z" fill="#1C2135"/>
<path d="M6.38794 4.93597C5.44025 5.77836 4.97519 6.30485 4.67684 6.91909C4.46624 7.34906 4.43115 7.51578 4.43115 8.20022C4.43115 8.94609 4.4487 9.02506 4.78214 9.64808C5.22966 10.508 6.67751 11.9559 8.09904 12.9825C9.2661 13.8161 9.1959 13.7723 10.7052 14.6234C12.2671 15.5097 18.8131 18.8617 18.9799 18.8617C19.0413 18.8617 20.1206 19.3531 22.5951 20.5201C24.4203 21.3713 27.395 22.8718 28.1671 23.3281C29.3693 24.0301 29.4746 24.0915 30.6417 24.8198C32.7652 26.136 34.213 27.4611 34.7658 28.5755C35.0028 29.0581 35.0466 29.2511 35.0466 29.8039C35.0554 30.4357 35.0554 30.4445 35.2046 30.2602C35.5907 29.7952 36.1874 28.7246 36.398 28.1455C36.5647 27.6541 36.6261 27.3294 36.6261 26.7591C36.6261 26.0658 36.5998 25.9605 36.3014 25.3551C35.9066 24.5478 35.073 23.486 34.3622 22.863C32.7037 21.4064 29.6413 19.5286 25.5084 17.4226C21.1911 15.2201 16.4352 12.7807 15.2154 12.1314C14.6802 11.8418 14.1098 11.5522 13.9431 11.4908C13.3025 11.2363 11.5827 10.236 10.3278 9.41116C7.66907 7.63863 6.50201 5.92753 7.05483 4.60253C7.12503 4.43581 7.17768 4.29541 7.16013 4.29541C7.14258 4.29541 6.80036 4.58498 6.38794 4.93597Z" fill="#1C2135"/>
<path d="M2.4833 9.80589C1.13197 12.0523 0.991574 13.3159 1.90416 15.0007C2.4482 16.001 3.19406 16.8434 4.64192 18.0631C5.9055 19.1336 7.17785 20.0111 8.86263 20.9763C8.98547 21.0465 9.09955 21.1167 9.12587 21.1431C9.19607 21.2133 9.51196 21.4063 9.65236 21.459C9.93316 21.573 11.1967 22.2311 11.4073 22.3715C11.5302 22.4505 11.8636 22.6172 12.1532 22.7401C13.0658 23.1349 15.3297 24.1616 17.1549 25.004C18.1201 25.4427 19.1117 25.8903 19.3486 25.9868C19.8312 26.1798 20.0681 26.2764 20.814 26.6186C21.086 26.7414 21.3405 26.8467 21.3756 26.8467C21.5248 26.8467 26.114 29.1808 26.9476 29.6722C29.7731 31.3745 30.9402 32.6118 30.9226 33.928C30.9226 34.2878 30.87 34.5423 30.7647 34.709C30.6067 34.9459 30.6067 34.9371 31.0192 34.6476C31.6246 34.2176 32.5197 33.2348 32.7741 32.7171C33.8183 30.6726 32.0195 28.2682 27.3074 25.4076C25.9385 24.5828 24.2186 23.6965 16.76 20.0023C14.5136 18.8967 12.2234 17.7472 11.6706 17.4488C9.71379 16.4046 7.72189 15.1586 6.58116 14.2636C6.26527 14.0091 5.9055 13.7458 5.77387 13.6581C5.379 13.4124 4.39622 12.4472 3.9838 11.9119C3.41344 11.1836 3.07999 10.4114 3.00102 9.66549L2.93959 9.04248L2.4833 9.80589Z" fill="#1C2135"/>
<path d="M0.315895 15.5709C0.193047 16.229 0 18.0542 0 18.5982C0 20.9236 1.8866 23.1261 6.05466 25.662C6.94092 26.206 9.23993 27.3994 10.3982 27.9171C11.4073 28.3734 16.251 30.3653 16.4265 30.4004C16.6898 30.4531 19.0239 31.4797 20.4893 32.1905C23.464 33.6296 25.5349 34.9809 26.0701 35.8496C26.2895 36.2094 26.3158 36.8587 26.114 37.1571C25.9736 37.3677 25.9736 37.3764 26.2105 37.2799C26.7195 37.0869 27.4917 36.6306 27.8777 36.2884C28.6236 35.639 28.7991 34.8142 28.3779 33.9718C27.7637 32.7345 25.3857 31.0059 22.2882 29.5493C21.5862 29.2158 20.7613 28.8122 20.4454 28.6542C20.1295 28.4875 19.2433 28.0751 18.4711 27.7241C17.6989 27.3731 16.9267 27.0221 16.76 26.9344C16.5933 26.8466 15.9001 26.5307 15.2244 26.2324C13.3641 25.4075 10.2403 23.8895 9.82785 23.5999C9.705 23.5209 9.37156 23.3191 9.08198 23.1699C8.50284 22.854 8.28347 22.7224 6.97602 21.8888C6.4934 21.5817 5.87916 21.2044 5.61591 21.0464C4.36988 20.3181 2.30779 18.5368 1.57948 17.5453C1.07931 16.8696 0.64934 16.036 0.570366 15.5885C0.491392 15.176 0.386094 15.176 0.315895 15.5709Z" fill="#131B32"/>
<path d="M121.934 21.4063V29.2159H126.629H131.323V27.5048V25.7937H128.559H125.795V19.6952V13.5967H123.865H121.934V21.4063Z" fill="#1C2135"/>
<path d="M91.3975 20.8796V29.2157H93.328H95.2585V27.5573V25.8988L95.8464 25.4074C96.1711 25.1354 96.4606 24.916 96.4957 24.916C96.5308 24.916 97.1012 25.8813 97.7681 27.0659L98.979 29.2157H101.155C103.296 29.2157 103.34 29.2157 103.244 29.0402C103.191 28.9437 102.278 27.3993 101.217 25.6005C100.155 23.8016 99.2774 22.3011 99.2686 22.2748C99.2598 22.2397 100.085 21.099 101.094 19.7301C102.112 18.37 102.954 17.2205 102.963 17.1766C102.98 17.1415 102.05 17.1064 100.892 17.1064H98.7772L97.3996 19.0106C96.6361 20.0635 95.8201 21.2481 95.5744 21.643C95.3375 22.0467 95.1269 22.3538 95.1005 22.3362C95.083 22.3187 95.1093 21.722 95.162 21.0288C95.2146 20.3268 95.2585 18.1243 95.2585 16.1499V12.5435H93.328H91.3975V20.8796Z" fill="#1C2135"/>
<path d="M138.212 13.4561C136.228 13.8422 134.631 15.018 133.754 16.7379C132.999 18.212 132.727 19.4756 132.727 21.4851C132.727 24.3632 133.359 26.2586 134.789 27.6801C136.079 28.97 137.51 29.4439 139.835 29.3649C141.16 29.3122 141.95 29.1631 142.959 28.7594L143.476 28.5576L143.503 27.5046C143.52 26.9255 143.503 26.1357 143.476 25.7409L143.415 25.0301L142.555 25.3635C140.335 26.2235 138.668 26.1445 137.738 25.1354C137.044 24.3808 136.772 23.5471 136.702 21.8887C136.623 20.1425 136.887 18.8877 137.518 17.9312C138.369 16.6501 139.817 16.4483 141.958 17.317C142.906 17.7031 142.915 17.7031 142.985 17.5188C143.626 15.7902 144.056 14.4476 143.994 14.3862C143.845 14.2458 142.581 13.772 141.844 13.5877C140.888 13.3595 139.071 13.2893 138.212 13.4561Z" fill="#1C2135"/>
<path d="M52.2883 13.6581L47.2603 13.6844V15.3955V17.1066H49.0152H50.7702V23.2051V29.3037H52.7007H54.6312V23.2051V17.1066H56.3247C57.2636 17.1066 58.0446 17.089 58.0621 17.0715C58.0797 17.0539 58.0885 16.2642 58.0709 15.3165L58.0446 13.5967L57.676 13.6142C57.4742 13.6318 55.0436 13.6493 52.2883 13.6581Z" fill="#1C2135"/>
<path d="M110.176 21.4063V29.2159H114.87H119.565V27.5048V25.7937H116.801H114.037V19.6952V13.5967H112.106H110.176V21.4063Z" fill="#1C2135"/>
<path d="M64.9765 17.045C64.1342 17.2819 63.1426 18.0629 62.7477 18.7999C62.6512 18.9754 62.5284 19.1246 62.4757 19.1246C62.4231 19.1246 62.2476 18.6859 62.0896 18.1594L61.7913 17.1941H60.361H58.9307V23.2488V29.3035H60.8611H62.7916V25.969C62.7916 22.8276 62.8004 22.617 62.9671 22.1607C63.1777 21.6167 63.5638 21.2218 64.0815 21.0463C64.2921 20.9673 64.7923 20.9235 65.4504 20.9235C66.1085 20.9322 66.477 20.8971 66.477 20.8357C66.4858 20.7918 66.556 19.9407 66.6438 18.9491C66.7315 17.9576 66.7754 17.1239 66.7491 17.0888C66.635 16.966 65.3802 16.9309 64.9765 17.045Z" fill="#1C2135"/>
<path d="M72.0756 17.0187C70.54 17.1942 68.513 17.861 68.6271 18.1506C69.1711 19.5809 69.6976 20.7831 69.7678 20.7568C71.2069 20.1337 71.9878 19.9144 72.76 19.9144C73.6375 19.9144 74.1114 20.3707 74.1114 21.213V21.5465L72.6021 21.6518C71.7685 21.7044 70.8296 21.8185 70.5137 21.8975C69.2238 22.2222 68.2322 22.9241 67.8373 23.8016C67.2406 25.1091 67.3986 27.0659 68.1971 28.2154C68.785 29.0841 69.6537 29.479 70.9524 29.479C72.3301 29.479 73.1461 29.1543 74.0061 28.268C74.3044 27.9609 74.5852 27.724 74.6115 27.7591C74.6378 27.7854 74.8133 28.1364 74.9976 28.5313L75.3223 29.2596L76.6473 29.2859L77.9723 29.3122V24.9775C77.9723 20.9147 77.9635 20.5988 77.7968 19.9495C77.4195 18.4753 76.5771 17.6066 75.0766 17.1591C74.4887 16.9836 72.9969 16.9134 72.0756 17.0187ZM74.1991 24.3983C74.1991 24.6879 74.1552 25.1091 74.0938 25.3285C73.8306 26.3814 72.4354 26.9343 71.6807 26.2761C71.4526 26.0919 71.435 26.0217 71.435 25.4601C71.435 24.9687 71.4701 24.7932 71.6193 24.5914C71.9703 24.1175 72.6196 23.8982 73.7428 23.8718L74.1991 23.8631V24.3983Z" fill="#1C2135"/>
<path d="M84.5971 17.0628C82.4385 17.4577 81.0433 18.7388 80.4291 20.8799C80.1307 21.889 80.0868 24.0388 80.3325 25.2235C80.6484 26.7766 81.4206 27.9963 82.5087 28.6895C84.1233 29.7162 87.1769 29.7162 88.8003 28.6895L89.2039 28.4263V26.7942C89.2039 25.8991 89.1776 25.1796 89.1425 25.1971C87.5981 25.9693 87.0365 26.1448 86.1064 26.1448C84.6059 26.1448 83.9302 25.0831 84.0531 22.9157C84.1057 21.8364 84.3163 21.2133 84.7726 20.7395C85.4132 20.0726 86.3082 20.0287 87.7473 20.6079C88.1334 20.757 88.4668 20.8536 88.5019 20.8185C88.6336 20.6693 89.5637 17.9666 89.5286 17.8526C89.4584 17.6771 88.1597 17.212 87.3173 17.0628C86.4047 16.9049 85.4395 16.9049 84.5971 17.0628Z" fill="#1C2135"/>
<path d="M0.315819 22.7665C0.53519 24.1705 1.12311 25.9693 1.5794 26.645C2.00937 27.2943 3.26417 28.514 4.12411 29.1195C5.91418 30.3831 8.39747 31.6642 12.1531 33.2524C13.9519 34.0159 16.2246 34.9284 16.4177 34.9635C16.6634 35.0162 19.2344 36.0692 20.1557 36.4991C21.6124 37.1836 22.2091 37.7013 22.0862 38.1839C22.0423 38.3419 22.0687 38.3506 22.3495 38.298C22.876 38.2015 23.5867 37.9031 23.8675 37.6662C24.3589 37.2626 24.1922 36.622 23.4375 35.9639C22.0687 34.7617 19.1203 33.27 13.6009 30.971C12.4163 30.4796 11.3107 30.0057 11.144 29.9092C10.9772 29.8215 10.5385 29.6284 10.1787 29.4793C9.468 29.1809 6.82677 27.8384 5.83521 27.2592C5.13322 26.8556 3.4309 25.7061 2.72891 25.162C1.93917 24.5653 0.930059 23.4773 0.456216 22.7314L0.254395 22.4155L0.315819 22.7665Z" fill="#1C2135"/>
<path d="M3.00986 29.5845C3.14148 29.76 3.24678 29.9355 3.24678 29.9618C3.24678 30.0846 4.15936 31.3307 4.58933 31.7957C6.05473 33.384 8.95921 34.8669 14.154 36.6833C14.97 36.9729 15.6808 37.201 15.751 37.201C15.8212 37.201 15.9791 37.2449 16.1195 37.2976C16.2512 37.359 16.4267 37.4116 16.4969 37.4204C16.7952 37.4555 19.4013 38.3681 19.5066 38.4734C19.5768 38.5348 19.7172 38.5699 19.8401 38.5524C20.6035 38.4471 20.7088 38.412 20.7088 38.2891C20.7088 37.9381 18.7257 36.9817 15.0051 35.525C10.7142 33.8578 8.76617 33.0154 7.01997 32.0941C5.44049 31.2605 4.47526 30.6287 3.07128 29.5055L2.76416 29.2598L3.00986 29.5845Z" fill="#1C2135"/>
</g>
<defs>
<clipPath id="clip0_276_1129">
<rect width="160" height="39" fill="white"/>
</clipPath>
</defs>
</svg>
